<?xml version="1.0" encoding="UTF-8" standalone="no"?>
<!-- Created with Inkscape (http://www.inkscape.org/) -->

<svg
   width="164mm"
   height="48mm"
   viewBox="0 0 164 48"
   version="1.1"
   id="svg5"
   inkscape:version="1.1 (c68e22c387, 2021-05-23)"
   sodipodi:docname="title.svg"
   xmlns:inkscape="http://www.inkscape.org/namespaces/inkscape"
   xmlns:sodipodi="http://sodipodi.sourceforge.net/DTD/sodipodi-0.dtd"
   xmlns="http://www.w3.org/2000/svg"
   xmlns:svg="http://www.w3.org/2000/svg">
  <sodipodi:namedview
     id="namedview7"
     pagecolor="#ffffff"
     bordercolor="#666666"
     borderopacity="1.0"
     inkscape:pageshadow="2"
     inkscape:pageopacity="0.0"
     inkscape:pagecheckerboard="true"
     inkscape:document-units="mm"
     showgrid="false"
     inkscape:zoom="1.4142136"
     inkscape:cx="420.37498"
     inkscape:cy="39.951533"
     inkscape:window-width="1440"
     inkscape:window-height="837"
     inkscape:window-x="-8"
     inkscape:window-y="-8"
     inkscape:window-maximized="1"
     inkscape:current-layer="layer1"
     width="209mm" />
  <defs
     id="defs2" />
  <g
     inkscape:label="レイヤー 1"
     inkscape:groupmode="layer"
     id="layer1"
     style="display:inline">
    <path
       d="m 21.797917,21.787066 q 0,0.37207 -0.359668,0.37207 -0.520898,0 -1.550293,-0.04961 -1.029394,-0.06201 -1.537891,-0.06201 -0.5333,0 -1.5875,0.04961 -1.041796,0.04961 -1.562695,0.04961 -0.384472,0 -0.384472,-0.458887 0,-0.830957 0.111621,-2.505274 0.111621,-1.686718 0.111621,-2.517675 0,-0.496094 -0.297657,-0.558106 -0.471289,-0.111621 -1.723925,-0.111621 -1.265039,0 -1.761133,0.111621 -0.297656,0.06201 -0.297656,0.558106 0,0.830957 0.07441,2.517675 0.07441,1.674317 0.07441,2.505274 0,0.458887 -0.384473,0.458887 -0.533301,0 -1.5999014,-0.04961 -1.0666014,-0.04961 -1.5999011,-0.04961 -0.4836917,0 -1.4634761,0.04961 -0.9673824,0.04961 -1.4510731,0.04961 -0.409278,0 -0.409278,-0.359668 0,-1.351856 0.124024,-4.055567 0.124023,-2.716113 0.124023,-4.067968 0,-1.438672 -0.124023,-4.3160154 -0.111621,-2.8897445 -0.111621,-4.3284156 0,-0.272851 0.297656,-0.272851 0.5208977,0 1.5626941,0.04961 1.0541994,0.04961 1.5750971,0.04961 0.5581047,0 1.6619131,-0.04961 1.1038084,-0.06201 1.6619134,-0.06201 0.198438,0 0.198438,0.248047 0,0.8433584 -0.186036,2.5424795 -0.173632,1.6867171 -0.173632,2.5300765 0,0.210839 0.223242,0.260449 0.508496,0.09922 1.984375,0.09922 1.37666,0 1.847949,-0.09922 0.310059,-0.07441 0.310059,-0.4836917 0,-0.7813467 -0.111622,-2.3440408 -0.09922,-1.5750971 -0.09922,-2.3564445 0,-0.396875 0.198437,-0.396875 0.520899,0 1.5875,0.06201 1.066602,0.04961 1.599902,0.04961 0.520899,0 1.562696,-0.04961 1.041797,-0.04961 1.550293,-0.04961 0.322461,0 0.322461,0.297656 0,1.4386711 -0.124024,4.3160126 -0.111621,2.8649414 -0.111621,4.3036134 0,1.351855 0.124024,4.067968 0.124023,2.703711 0.124023,4.055567 z"
       style="font-weight:bold;font-size:25.4px;line-height:1.25;font-family:'Berlin Sans FB';-inkscape-font-specification:'Berlin Sans FB Bold';fill:#57df57;fill-opacity:1;stroke-width:0.264583"
       id="path46110" />
    <path
       d="m 41.368815,21.973101 q 0,0.173633 -0.496094,0.173633 -0.5333,0 -1.612304,-0.04961 -1.079004,-0.04961 -1.612305,-0.04961 -0.533301,0 -1.5875,0.04961 -1.054199,0.04961 -1.5875,0.04961 -0.322461,0 -0.37207,-0.372071 0,0.0124 0,-0.607715 0,-0.496093 -0.471289,-0.496093 -2.889746,0 -3.38584,0.16123 -0.496094,0.148828 -0.607715,0.768945 -0.09922,0.545704 -0.396875,0.545704 -0.508496,0 -1.525488,-0.04961 -1.016992,-0.04961 -1.525488,-0.04961 -0.496094,0 -1.513086,0.04961 -1.00459,0.04961 -1.500684,0.04961 -0.359668,0 -0.359668,-0.310059 0,-0.37207 5.866309,-16.916794 0.111621,-0.3100577 0.198437,-0.3720697 0.08682,-0.07441 0.384473,-0.07441 0.434082,0 1.277441,0.111621 0.855762,0.111621 1.289844,0.111621 1.74873,0 2.443262,-0.173633 0.148828,-0.04961 0.210839,-0.04961 0.21084,0 0.496094,0.4216797 0.124024,0.186035 1.016992,2.2200178 0.706934,1.5626941 2.00918,4.7252912 0.620117,1.649512 1.661914,4.998145 1.054199,3.348632 1.661914,4.973339 0.03721,0.111621 0.03721,0.161231 z m -8.272363,-7.999512 q 0,-0.979785 -1.091406,-1.637109 -1.091407,0.79375 -1.091407,1.637109 0,0.434082 0.322461,0.768945 0.334864,0.322461 0.768946,0.322461 0.446484,0 0.768945,-0.322461 0.322461,-0.334863 0.322461,-0.768945 z"
       style="font-weight:bold;font-size:25.4px;line-height:1.25;font-family:'Berlin Sans FB';-inkscape-font-specification:'Berlin Sans FB Bold';fill:#57df57;fill-opacity:1;stroke-width:0.264583"
       id="path46112" />
    <path
       id="path46114"
       style="font-weight:bold;font-size:25.4px;line-height:1.25;font-family:'Berlin Sans FB';-inkscape-font-specification:'Berlin Sans FB Bold';fill:#df5656;fill-opacity:1;stroke-width:0.264583"
       d="m 57.727741,4.3620076 c -0.330729,0 -0.768946,0.049608 -1.314649,0.1488281 -0.719336,0.1240198 -1.161684,0.1943 -1.327049,0.2108399 -1.240234,0.1405601 -2.046385,0.2108398 -2.418458,0.2108398 -0.338995,0 -0.519864,0.069247 -0.519864,0.2511475 -0.01987,0.097641 -0.01585,0.2012598 -0.01913,0.2816366 0,1.1244783 0.03307,2.815333 0.09922,5.0725585 0.07441,2.257227 0.111622,3.94808 0.111622,5.072559 0,1.231967 -0.40101,1.847949 -1.203028,1.847949 -0.983917,0 -1.475878,-0.797883 -1.475878,-2.393652 0,-0.14056 0.0041,-0.343132 0.01241,-0.607715 0.0083,-0.264583 0.01241,-0.450619 0.01241,-0.558106 0,-0.950846 0.04134,-2.38125 0.124024,-4.2912108 0.09094,-1.9099598 0.136424,-3.3403643 0.136424,-4.2912109 0,-0.150818 -0.131048,-0.2398254 -0.390154,-0.2687174 -0.0063,0.00527 -0.216924,0.00827 -0.639239,0.00827 -0.611849,0 -1.537891,-0.00827 -2.778125,-0.024805 -1.231966,-0.016499 -2.153875,-0.024805 -2.765724,-0.024805 -0.198435,0 -0.297656,0.090951 -0.297656,0.2728516 0,0.9591146 0.03721,2.4019221 0.111622,4.3284179 0.08268,1.9182286 0.124024,3.3569006 0.124024,4.3160156 v 1.289844 c -0.0083,0.545703 -0.01241,0.938444 -0.01241,1.178222 0,1.686719 0.124023,2.898014 0.37207,3.633887 0.330729,0.959114 0.983919,1.645377 1.95957,2.058789 1.041797,0.438216 2.649969,0.657324 4.824513,0.657324 3.852995,0 6.279719,-0.595312 7.280175,-1.785937 0.661458,-0.768945 0.992187,-2.302703 0.992187,-4.60127 0,-0.183496 -0.0024,-0.449248 -0.0062,-0.752408 0.509399,0.438936 2.08417,2.483797 4.724775,6.135542 0.198438,0.272852 0.367935,0.409278 0.508495,0.409278 0.289388,0 0.719339,-0.01654 1.289844,-0.04961 0.570508,-0.03307 0.996323,-0.04961 1.277443,-0.04961 0.272851,0 0.677994,0.01654 1.215429,0.04961 0.545703,0.03307 0.954979,0.04961 1.227831,0.04961 0.289391,0 0.434083,-0.09509 0.434083,-0.285254 l 0.02479,-8.247559 c 0,-0.950846 0.0067,-1.53479 0.09767,-3.428214 0.0404,-0.681396 0.104701,-0.6859617 -0.04806,-0.6769616 -0.355528,0 -0.888838,0.012398 -1.599903,0.037207 -0.711065,0.02481 -1.244368,0.037207 -1.599901,0.037207 -0.33073,0 -0.826823,-0.012398 -1.488282,-0.037207 -0.661458,-0.02481 -1.303147,-0.1100484 -1.4118,-0.044958 -0.238202,0.164111 -0.05138,0.3414443 -0.0021,1.4960336 0,0.479554 -0.04134,0.748272 -0.124024,0.806152 C 61.874203,10.025745 60.869612,8.6697544 60.232959,7.7354451 59.042334,6.0652641 58.376743,5.1185503 58.236183,4.8953084 58.01294,4.5397748 57.84344,4.3620076 57.727685,4.3620076 Z m -8.172109,0.6857463 c 0.0016,-0.00132 -0.0065,-0.00246 -0.03153,-0.00414 0.01125,9.789e-4 0.02074,0.00293 0.03153,0.00414 z"
       sodipodi:nodetypes="sccscccssssscscscsscscsccscsccssscsccccssscccccsccc" />
    <path
       d="m 87.732752,7.2143138 q 0,0.2604487 -1.178214,2.3812485 -1.165814,2.1083977 -1.401461,2.2944327 -0.18603,0.148829 -0.34726,0.148829 -0.062,0 -0.545707,-0.409278 -0.582907,-0.483691 -1.128604,-0.74414 -0.843354,-0.396875 -1.785928,-0.396875 -1.190614,0 -2.021568,0.868164 -0.818557,0.855761 -0.818557,2.046386 0,1.203028 0.818557,2.083594 0.830954,0.868164 2.021568,0.868164 1.996768,0 3.075762,-1.190625 0.17364,-0.198437 0.260447,-0.198437 0.14883,0 1.513084,2.009179 1.376651,2.058789 1.376651,2.406055 0,0.235645 -0.285257,0.607715 -0.979777,1.265039 -2.778105,1.984375 -1.624701,0.657324 -3.361022,0.657324 -3.832299,0 -6.523594,-2.654102 -2.678892,-2.666503 -2.678892,-6.486425 0,-3.8323237 2.678892,-6.5112292 2.691295,-2.6913065 6.523594,-2.6913065 3.857109,0 6.287954,2.4184558 0.29766,0.2852537 0.29766,0.5084957 z"
       style="font-weight:bold;font-size:25.4px;line-height:1.25;font-family:'Berlin Sans FB';-inkscape-font-specification:'Berlin Sans FB Bold';fill:#df5656;fill-opacity:1;stroke-width:0.264583"
       id="path46120" />
    <path
       d="m 106.8943,13.465093 q 0,3.819922 -2.69131,6.523633 -2.67891,2.691308 -6.498815,2.691308 -3.832299,0 -6.523594,-2.691308 -2.678895,-2.703711 -2.678895,-6.523633 0,-3.8323237 2.678895,-6.5360332 2.691295,-2.7161115 6.523594,-2.7161115 3.819905,0 6.498815,2.7161115 2.69131,2.7037095 2.69131,6.5360332 z m -6.35,0 q 0,-1.203027 -0.830957,-2.058789 -0.818544,-0.868164 -2.009168,-0.868164 -1.215424,0 -2.033968,0.855762 -0.818557,0.855761 -0.818557,2.071191 0,1.178223 0.830957,2.033984 0.843354,0.855762 2.021568,0.855762 1.190624,0 2.009168,-0.843359 0.830957,-0.855762 0.830957,-2.046387 z"
       style="font-weight:bold;font-size:25.4px;line-height:1.25;font-family:'Berlin Sans FB';-inkscape-font-specification:'Berlin Sans FB Bold';fill:#df5656;fill-opacity:1;stroke-width:0.264583"
       id="path46122" />
    <path
       d="m 125.63424,13.353472 q 0,1.723926 -0.70694,3.497461 -0.69453,1.773535 -1.88515,3.013769 -2.19522,2.282032 -5.8167,2.282032 -0.73174,0 -2.18281,-0.04961 -1.45108,-0.04961 -2.18282,-0.04961 -0.64492,0 -1.93476,0.04961 -1.28985,0.04961 -1.92237,0.04961 -0.40927,0 -0.40927,-0.359668 0,-1.351856 0.12402,-4.055567 0.12402,-2.716113 0.12402,-4.067968 0,-1.438672 -0.12402,-4.3160154 -0.11162,-2.8897445 -0.11162,-4.3160136 0,-0.285253 0.31006,-0.285253 h 3.12539 q 0.47129,0 1.33945,-0.0124 0.93018,-0.0124 1.40147,-0.0124 5.01054,0 7.31738,1.5254874 1.6123,1.0541984 2.59209,3.1377912 0.94258,1.9719724 0.94258,3.9687494 z m -6.39961,0 q 0,-1.463477 -1.00459,-2.492871 -0.99219,-1.0293947 -2.44326,-1.0293947 -0.62012,0 -0.62012,0.5208987 0,0.508496 -0.0248,1.550293 -0.0248,1.041797 -0.0248,1.562695 0,0.508496 0.0248,1.525488 0.0248,1.00459 0.0248,1.513086 0,0.558106 0.69453,0.558106 1.48828,0 2.45566,-1.116211 0.91778,-1.066602 0.91778,-2.59209 z"
       style="font-weight:bold;font-size:25.4px;line-height:1.25;font-family:'Berlin Sans FB';-inkscape-font-specification:'Berlin Sans FB Bold';fill:#df5656;fill-opacity:1;stroke-width:0.264583"
       id="path46124" />
    <path
       d="m 141.02555,17.173394 q 0,0.446484 -0.16123,1.203027 -0.22324,1.066602 -0.24804,1.203027 -0.0992,0.855762 -0.40928,2.517676 -0.062,0.285254 -0.45889,0.285254 -0.12402,0 -0.34726,-0.03721 -2.18282,-0.297656 -5.7919,-0.297656 -0.99219,0 -2.96416,0.04961 -1.97197,0.04961 -2.95176,0.04961 -0.40927,0 -0.40927,-0.359668 0,-1.389063 0.14882,-4.167188 0.14883,-2.790527 0.14883,-4.17959 0,-1.413867 -0.13642,-5.2709948 -0.0372,-0.9921864 -0.13643,-2.9641582 L 127.29616,5.0315 q -0.0248,-0.285253 0.31006,-0.285253 0.96738,0 2.90215,0.04961 1.94716,0.04961 2.92695,0.04961 0.97978,0 2.96416,-0.04961 1.98437,-0.04961 2.97656,-0.04961 0.69453,0 0.83096,0.6325187 0.062,0.248047 0.24804,2.1828118 0.18604,1.9223618 0.18604,2.1952128 0,0.2480467 -0.26045,0.2480467 -0.66973,0 -2.02158,-0.1364257 -1.35186,-0.136425 -2.03399,-0.136425 -1.1038,0 -1.26503,0.0124 -0.96739,0.08682 -0.96739,0.5208977 0,0.595313 1.15342,0.744141 0.32246,0.03721 1.5875,0.03721 1.0418,0 1.99678,-0.09922 1.26504,-0.124023 1.02939,-0.124023 0.32246,0 0.32246,0.359668 0,0.347266 -0.11162,1.066601 -0.14883,0.880567 -0.16123,1.103809 -0.16123,1.661914 -0.16123,2.368848 0,0.272851 -0.38447,0.272851 0.11162,0 -1.07901,-0.148828 -1.32705,-0.16123 -3.06337,-0.16123 -1.12862,0 -1.12862,0.620117 0,0.297656 0.14883,0.434082 0.35967,0.297656 3.73311,0.297656 0.45888,0 1.36425,-0.07441 0.91778,-0.08682 1.37666,-0.08682 0.31006,0 0.31006,0.297656 z"
       style="font-weight:bold;font-size:25.4px;line-height:1.25;font-family:'Berlin Sans FB';-inkscape-font-specification:'Berlin Sans FB Bold';fill:#df5656;fill-opacity:1;stroke-width:0.264583"
       id="path46126" />
    <path
       d="m 159.33141,13.353472 q 0,1.723926 -0.70693,3.497461 -0.69453,1.773535 -1.88516,3.013769 -2.19521,2.282032 -5.8167,2.282032 -0.73174,0 -2.18281,-0.04961 -1.45107,-0.04961 -2.18281,-0.04961 -0.64492,0 -1.93477,0.04961 -1.28984,0.04961 -1.92236,0.04961 -0.40928,0 -0.40928,-0.359668 0,-1.351856 0.12403,-4.055567 0.12402,-2.716113 0.12402,-4.067968 0,-1.438672 -0.12402,-4.3160154 -0.11163,-2.8897445 -0.11163,-4.3160136 0,-0.285253 0.31006,-0.285253 h 3.12539 q 0.47129,0 1.33946,-0.0124 0.93017,-0.0124 1.40146,-0.0124 5.01055,0 7.31738,1.5254874 1.61231,1.0541984 2.59209,3.1377912 0.94258,1.9719724 0.94258,3.9687494 z m -6.39961,0 q 0,-1.463477 -1.00459,-2.492871 -0.99218,-1.0293947 -2.44326,-1.0293947 -0.62012,0 -0.62012,0.5208987 0,0.508496 -0.0248,1.550293 -0.0248,1.041797 -0.0248,1.562695 0,0.508496 0.0248,1.525488 0.0248,1.00459 0.0248,1.513086 0,0.558106 0.69453,0.558106 1.48829,0 2.45567,-1.116211 0.91777,-1.066602 0.91777,-2.59209 z"
       style="font-weight:bold;font-size:25.4px;line-height:1.25;font-family:'Berlin Sans FB';-inkscape-font-specification:'Berlin Sans FB Bold';fill:#57df57;fill-opacity:1;stroke-width:0.264583"
       id="path46128" />
    <path
       d="m 21.797917,43.482892 q 0,0.37207 -0.359668,0.37207 -0.520898,0 -1.550293,-0.04961 -1.029394,-0.06201 -1.537891,-0.06201 -0.5333,0 -1.5875,0.04961 -1.041796,0.04961 -1.562695,0.04961 -0.384472,0 -0.384472,-0.458887 0,-0.830957 0.111621,-2.505273 0.111621,-1.686719 0.111621,-2.517676 0,-0.496093 -0.297657,-0.558105 Q 14.269694,37.691 13.017058,37.691 q -1.265039,0 -1.761133,0.111621 -0.297656,0.06201 -0.297656,0.558105 0,0.830957 0.07441,2.517676 0.07441,1.674316 0.07441,2.505273 0,0.458887 -0.384473,0.458887 -0.533301,0 -1.5999014,-0.04961 -1.0666014,-0.04961 -1.5999011,-0.04961 -0.4836917,0 -1.4634761,0.04961 -0.9673824,0.04961 -1.4510731,0.04961 -0.409278,0 -0.409278,-0.359668 0,-1.351855 0.124024,-4.055566 0.124023,-2.716113 0.124023,-4.067969 0,-1.438672 -0.124023,-4.316015 -0.111621,-2.889746 -0.111621,-4.328418 0,-0.272852 0.297656,-0.272852 0.5208977,0 1.5626941,0.04961 1.0541994,0.04961 1.5750971,0.04961 0.5581047,0 1.6619131,-0.04961 1.1038084,-0.06201 1.6619134,-0.06201 0.198438,0 0.198438,0.248047 0,0.843359 -0.186036,2.54248 -0.173632,1.686719 -0.173632,2.530078 0,0.21084 0.223242,0.260449 0.508496,0.09922 1.984375,0.09922 1.37666,0 1.847949,-0.09922 0.310059,-0.07441 0.310059,-0.483691 0,-0.781348 -0.111622,-2.344043 -0.09922,-1.575098 -0.09922,-2.356445 0,-0.396875 0.198437,-0.396875 0.520899,0 1.5875,0.06201 1.066602,0.04961 1.599902,0.04961 0.520899,0 1.562696,-0.04961 1.041797,-0.04961 1.550293,-0.04961 0.322461,0 0.322461,0.297656 0,1.438672 -0.124024,4.316016 -0.111621,2.864941 -0.111621,4.303613 0,1.351856 0.124024,4.067969 0.124023,2.703711 0.124023,4.055566 z"
       style="font-weight:bold;font-size:25.4px;line-height:1.25;font-family:'Berlin Sans FB';-inkscape-font-specification:'Berlin Sans FB Bold';fill:#57df57;fill-opacity:1;stroke-width:0.264583"
       id="path46130" />
    <path
       d="m 41.840104,35.16092 q 0,3.819921 -2.691308,6.523632 -2.678907,2.691309 -6.498828,2.691309 -3.832325,0 -6.523633,-2.691309 -2.678906,-2.703711 -2.678906,-6.523632 0,-3.832325 2.678906,-6.536035 2.691308,-2.716114 6.523633,-2.716114 3.819921,0 6.498828,2.716114 2.691308,2.70371 2.691308,6.536035 z m -6.35,0 q 0,-1.203028 -0.830957,-2.058789 -0.818555,-0.868164 -2.009179,-0.868164 -1.21543,0 -2.033985,0.855761 -0.818555,0.855762 -0.818555,2.071192 0,1.178222 0.830958,2.033984 0.843359,0.855762 2.021582,0.855762 1.190624,0 2.009179,-0.84336 0.830957,-0.855761 0.830957,-2.046386 z"
       style="font-weight:bold;font-size:25.4px;line-height:1.25;font-family:'Berlin Sans FB';-inkscape-font-specification:'Berlin Sans FB Bold';fill:#57df57;fill-opacity:1;stroke-width:0.264583"
       id="path46132" />
    <path
       d="m 59.315005,26.739728 q 0,1.438672 -0.124023,4.316016 -0.111621,2.864941 -0.111621,4.303613 0,0.409277 0.0124,1.21543 0.0124,0.806152 0.0124,1.215429 0,3.447852 -0.992187,4.60127 -1.500684,1.785937 -7.280176,1.785937 -3.261816,0 -4.824511,-0.657324 -1.463477,-0.620117 -1.959571,-2.058789 -0.37207,-1.103808 -0.37207,-3.633887 0,-0.359667 0.0124,-1.178222 0,-0.818555 0,-1.289844 0,-1.438672 -0.124023,-4.316015 -0.111621,-2.889746 -0.111621,-4.328418 0,-0.272852 0.297656,-0.272852 0.917774,0 2.765723,0.02481 1.860351,0.0248 2.778125,0.0248 0.79375,0 0.607715,-0.0124 0.421679,0.03721 0.421679,0.272852 0,1.426269 -0.136426,4.291211 -0.124023,2.864941 -0.124023,4.29121 0,0.161231 -0.0124,0.558106 -0.0124,0.396875 -0.0124,0.607715 0,2.393652 1.475879,2.393652 1.203028,0 1.203028,-1.847949 0,-1.686719 -0.111622,-5.072559 -0.09922,-3.385839 -0.09922,-5.072558 0,-0.37207 0.21084,-0.384473 0.446484,-0.04961 1.550292,-0.0124 1.488282,0.03721 1.612305,0.03721 0.520899,0 1.562695,-0.04961 1.041797,-0.04961 1.562696,-0.04961 0.310058,0 0.310058,0.297656 z"
       style="font-weight:bold;font-size:25.4px;line-height:1.25;font-family:'Berlin Sans FB';-inkscape-font-specification:'Berlin Sans FB Bold';fill:#57df57;fill-opacity:1;stroke-width:0.264583"
       id="path46134" />
    <path
       d="m 71.419693,30.844904 q 0,0.04961 -1.066602,0.768945 -1.054199,0.719336 -1.054199,1.513086 0,0.558106 0.954981,2.195215 0.95498,1.624707 0.95498,2.926953 0,1.599902 -0.744141,2.827735 -0.781347,1.302246 -2.951757,2.567285 -1.823145,1.054199 -3.671094,1.599902 -0.16123,0.03721 -0.248047,0.03721 -0.148828,0 -0.285254,-0.272852 -0.09922,-0.186035 -1.426269,-2.629296 -1.252637,-2.306836 -1.252637,-2.331641 0,-0.08682 0.818555,-0.570508 1.00459,-0.58291 1.525488,-1.079004 0.818555,-0.79375 0.818555,-1.661914 0,-0.768945 -0.545703,-1.562695 -1.00459,-1.438672 -1.016993,-1.463477 -0.545703,-1.016992 -0.545703,-2.344043 0,-2.306835 2.182813,-3.819921 1.773535,-1.227832 4.316015,-1.5875 0.458887,-0.06201 0.384473,-0.06201 0.06201,0 0.173633,0.272852 0.545703,1.339453 2.641699,4.564062 0.03721,0.06201 0.03721,0.111621 z"
       style="font-weight:bold;font-size:25.4px;line-height:1.25;font-family:'Berlin Sans FB';-inkscape-font-specification:'Berlin Sans FB Bold';fill:#57df57;fill-opacity:1;stroke-width:0.264583"
       id="path46136" />
    <path
       d="m 87.133405,38.86922 q 0,0.446485 -0.16123,1.203028 -0.223237,1.066601 -0.248047,1.203027 -0.0992,0.855762 -0.40928,2.517676 -0.062,0.285254 -0.458877,0.285254 -0.12403,0 -0.347267,-0.03721 -2.182798,-0.297657 -5.791857,-0.297657 -0.992184,0 -2.964145,0.04961 -1.971975,0.04961 -2.95176,0.04961 -0.409278,0 -0.409278,-0.359668 0,-1.389062 0.148828,-4.167187 0.148828,-2.790528 0.148828,-4.17959 0,-1.413867 -0.136425,-5.270996 -0.03721,-0.992188 -0.136426,-2.96416 l -0.0124,-0.173633 q -0.02481,-0.285254 0.310058,-0.285254 0.967383,0 2.902149,0.04961 1.947157,0.04961 2.926931,0.04961 0.979784,0 2.964145,-0.04961 1.984368,-0.04961 2.976552,-0.04961 0.694527,0 0.830944,0.63252 0.062,0.248046 0.24805,2.182812 0.18604,1.922363 0.18604,2.195215 0,0.248047 -0.26045,0.248047 -0.669727,0 -2.021578,-0.136426 -1.351844,-0.136426 -2.033968,-0.136426 -1.103804,0 -1.265034,0.0124 -0.967374,0.08682 -0.967374,0.520898 0,0.595312 1.153414,0.744141 0.322457,0.03721 1.587491,0.03721 1.041784,0 1.996758,-0.09922 1.265034,-0.124024 1.029394,-0.124024 0.322457,0 0.322457,0.359668 0,0.347266 -0.111617,1.066602 -0.14883,0.880566 -0.16123,1.103809 -0.16123,1.661914 -0.16123,2.368847 0,0.272852 -0.384477,0.272852 0.11163,0 -1.078994,-0.148828 -1.327041,-0.161231 -3.063362,-0.161231 -1.128604,0 -1.128604,0.620117 0,0.297657 0.14883,0.434082 0.359657,0.297657 3.733079,0.297657 0.458887,0 1.364251,-0.07441 0.917764,-0.08682 1.376651,-0.08682 0.31006,0 0.31006,0.297656 z"
       style="font-weight:bold;font-size:25.4px;line-height:1.25;font-family:'Berlin Sans FB';-inkscape-font-specification:'Berlin Sans FB Bold';fill:#57df57;fill-opacity:1;stroke-width:0.264583"
       id="path46138" />
    <g
       style="opacity:1"
       id="g991"
       transform="matrix(0.01349355,0,0,0.01349355,63.00923,1.8737149)">
      <g
         id="g981">
	<path
   class="st0"
   d="m 508.374,432.802 c 0,0 -46.6,-39.038 -79.495,-275.781 C 420.046,69.341 346.023,0.882 256,0.882 165.985,0.882 91.954,69.34 83.121,157.02 50.226,393.763 3.626,432.802 3.626,432.802 c -15.107,25.181 20.733,28.178 38.699,27.94 35.254,-0.478 35.254,40.294 70.516,40.294 35.254,0 35.254,-35.261 70.508,-35.261 35.254,0 37.396,45.343 72.65,45.343 35.254,0 37.389,-45.343 72.651,-45.343 35.254,0 35.254,35.261 70.508,35.261 35.254,0 35.27,-40.772 70.524,-40.294 17.959,0.238 53.798,-2.76 38.692,-27.94 z M 208.769,225.031 c -12.518,0 -22.676,-10.15 -22.676,-22.675 0,-12.518 10.158,-22.66 22.676,-22.66 12.516,0 22.66,10.142 22.66,22.66 0,12.525 -10.144,22.675 -22.66,22.675 z m 89.214,0 c -12.525,0 -22.668,-10.15 -22.668,-22.675 0,-12.518 10.143,-22.66 22.668,-22.66 12.509,0 22.667,10.142 22.667,22.66 0,12.525 -10.158,22.675 -22.667,22.675 z"
   style="fill:#df5656"
   id="path979" />

</g>
    </g>
  </g>
  <style
     type="text/css"
     id="style977">
	.st0{fill:#4B4B4B;}
</style>
</svg>
